<?xml version="1.0" encoding="UTF-8" standalone="no"?>
<!-- Generator: Adobe Illustrator 17.1.0, SVG Export Plug-In . SVG Version: 6.00 Build 0)  -->

<svg
   version="1.1"
   id="Layer_1"
   x="0px"
   y="0px"
   viewBox="0 0 299.99999 64.000002"
   enable-background="new 0 0 841.9 595.3"
   xml:space="preserve"
   sodipodi:docname="bvbabel_logo.svg"
   inkscape:export-filename="BI_Logo_fromAI_forGithub.png"
   inkscape:export-xdpi="192"
   inkscape:export-ydpi="192"
   width="300"
   height="64"
   inkscape:version="1.2.1 (9c6d41e4, 2022-07-14)"
   xmlns:inkscape="http://www.inkscape.org/namespaces/inkscape"
   xmlns:sodipodi="http://sodipodi.sourceforge.net/DTD/sodipodi-0.dtd"
   xmlns:xlink="http://www.w3.org/1999/xlink"
   xmlns="http://www.w3.org/2000/svg"
   xmlns:svg="http://www.w3.org/2000/svg"><defs
   id="defs112"><clipPath
   clipPathUnits="userSpaceOnUse"
   id="clipPath450"><rect
     style="fill:#000000"
     id="rect452"
     width="128.37962"
     height="104.05506"
     x="-55.405941"
     y="275.34048" /></clipPath>
		<defs
   id="defs82">
			<rect
   id="SVGID_1_"
   x="-0.1"
   y="0.1"
   width="842"
   height="595" />
		</defs>
		<clipPath
   id="SVGID_2_">
			<use
   xlink:href="#SVGID_1_"
   overflow="visible"
   id="use84" />
		</clipPath>
		
	</defs><sodipodi:namedview
   id="namedview110"
   pagecolor="#ffffff"
   bordercolor="#000000"
   borderopacity="0.25"
   inkscape:showpageshadow="2"
   inkscape:pageopacity="0.0"
   inkscape:pagecheckerboard="0"
   inkscape:deskcolor="#d1d1d1"
   showgrid="false"
   inkscape:zoom="2.9599714"
   inkscape:cx="208.95472"
   inkscape:cy="9.1217098"
   inkscape:window-width="2560"
   inkscape:window-height="1440"
   inkscape:window-x="0"
   inkscape:window-y="0"
   inkscape:window-maximized="0"
   inkscape:current-layer="Layer_1" />
<g
   id="g107"
   transform="translate(0,1)">
	<g
   id="g30924"
   transform="translate(-373.88877,-11.358435)"
   style="stroke:#ffffff;stroke-width:0.5;stroke-dasharray:none"><path
     d="m 404.56648,52.79309 q 0,-1.664 -0.624,-3.12 -0.624,-1.52533 -1.73334,-2.63466 -1.10933,-1.10933 -2.56533,-1.73333 -1.456,-0.69334 -3.18933,-0.69334 -1.664,0 -3.12,0.624 -1.456,0.624 -2.56533,1.73334 -1.04,1.10933 -1.73333,2.63466 -0.624,1.456 -0.624,3.12 0,1.664 0.624,3.12 0.624,1.456 1.73333,2.56533 1.10933,1.04 2.56533,1.73333 1.52533,0.624 3.18933,0.624 1.664,0 3.12,-0.624 1.456,-0.624 2.496,-1.73333 1.10933,-1.10933 1.73333,-2.56533 0.69334,-1.456 0.69334,-3.05067 z m -15.808,-39.86664 V 38.4411 q 4.43733,-4.64533 11.09333,-4.64533 3.952,0 7.21066,1.52533 3.328,1.456 5.616,4.02133 2.35733,2.496 3.67467,5.96267 1.31733,3.39733 1.31733,7.27999 0,3.952 -1.38667,7.41867 -1.31733,3.46666 -3.744,6.03199 -2.42666,2.56533 -5.75466,4.09067 -3.25866,1.456 -7.072,1.456 -6.93333,0 -10.95466,-5.06133 v 3.95199 H 376.20916 V 12.92645 Z"
     style="font-weight:bold;font-size:69.3333px;font-family:Futura;-inkscape-font-specification:'Futura Bold';fill:#47a3fb;fill-opacity:1;stroke:#ffffff;stroke-width:0.5;stroke-dasharray:none"
     id="path2703" /><path
     d="m 432.993,34.9051 8.45866,18.23466 8.59733,-18.23466 h 14.00533 L 445.54233,70.47308 H 437.153 L 418.84901,34.9051 Z"
     style="font-weight:bold;font-size:69.3333px;font-family:Futura;-inkscape-font-specification:'Futura Bold';fill:#47a3fb;fill-opacity:1;stroke:#ffffff;stroke-width:0.5;stroke-dasharray:none"
     id="path2705" /><g
     id="g12827"
     style="stroke:#ffffff;stroke-width:0.5;stroke-dasharray:none"><path
       d="m 496.7102,52.79309 q 0,-1.664 -0.624,-3.12 -0.624,-1.52533 -1.73333,-2.63466 -1.10934,-1.10933 -2.56534,-1.73333 -1.456,-0.69334 -3.18933,-0.69334 -1.664,0 -3.12,0.624 -1.456,0.624 -2.56533,1.73334 -1.04,1.10933 -1.73333,2.63466 -0.624,1.456 -0.624,3.12 0,1.664 0.624,3.12 0.624,1.456 1.73333,2.56533 1.10933,1.04 2.56533,1.73333 1.52534,0.624 3.18934,0.624 1.66399,0 3.11999,-0.624 1.456,-0.624 2.496,-1.73333 1.10934,-1.10933 1.73333,-2.56533 0.69334,-1.456 0.69334,-3.05067 z M 480.90221,12.92645 V 38.4411 q 4.43733,-4.64533 11.09332,-4.64533 3.952,0 7.21067,1.52533 3.32799,1.456 5.61599,4.02133 2.35734,2.496 3.67467,5.96267 1.31733,3.39733 1.31733,7.27999 0,3.952 -1.38666,7.41867 -1.31734,3.46666 -3.744,6.03199 -2.42667,2.56533 -5.75467,4.09067 -3.25866,1.456 -7.07199,1.456 -6.93333,0 -10.95466,-5.06133 v 3.95199 H 468.35288 V 12.92645 Z"
       style="font-weight:bold;font-size:69.3333px;font-family:Futura;-inkscape-font-specification:'Futura Bold';fill:#f1526c;fill-opacity:1;stroke:#ffffff;stroke-width:0.5;stroke-dasharray:none"
       id="path2707" /><path
       d="m 528.6034,52.58509 q 0,1.73334 0.624,3.25867 0.624,1.456 1.664,2.56533 1.10933,1.10933 2.56533,1.73333 1.52533,0.624 3.25866,0.624 1.664,0 3.12,-0.624 1.52533,-0.624 2.56533,-1.73333 1.10934,-1.10933 1.73334,-2.56533 0.69333,-1.456 0.69333,-3.12 0,-1.664 -0.69333,-3.12 -0.624,-1.52533 -1.73334,-2.63466 -1.04,-1.10934 -2.56533,-1.73334 -1.456,-0.624 -3.12,-0.624 -1.73333,0 -3.25866,0.624 -1.456,0.624 -2.56533,1.73334 -1.04,1.10933 -1.664,2.56533 -0.624,1.38666 -0.624,3.05066 z M 544.41139,34.9051 h 12.61866 v 35.56798 h -12.61866 v -3.95199 q -4.02133,5.06133 -10.88533,5.06133 -3.88266,0 -7.14133,-1.38667 -3.25866,-1.456 -5.68533,-4.02133 -2.42666,-2.56533 -3.81333,-6.032 -1.31733,-3.46666 -1.31733,-7.55733 0,-3.81333 1.31733,-7.21066 1.31733,-3.46667 3.67466,-6.032 2.35734,-2.56533 5.616,-4.02133 3.25867,-1.52533 7.21066,-1.52533 6.656,0 11.024,4.64533 z"
       style="font-weight:bold;font-size:69.3333px;font-family:Futura;-inkscape-font-specification:'Futura Bold';fill:#f1526c;fill-opacity:1;stroke:#ffffff;stroke-width:0.5;stroke-dasharray:none"
       id="path2709" /><path
       d="m 593.91525,52.79309 q 0,-1.664 -0.624,-3.12 -0.624,-1.52533 -1.73334,-2.63466 -1.10933,-1.10933 -2.56533,-1.73333 -1.456,-0.69334 -3.18933,-0.69334 -1.664,0 -3.12,0.624 -1.456,0.624 -2.56533,1.73334 -1.04,1.10933 -1.73333,2.63466 -0.624,1.456 -0.624,3.12 0,1.664 0.624,3.12 0.624,1.456 1.73333,2.56533 1.10933,1.04 2.56533,1.73333 1.52533,0.624 3.18933,0.624 1.664,0 3.12,-0.624 1.456,-0.624 2.496,-1.73333 1.10933,-1.10933 1.73333,-2.56533 0.69334,-1.456 0.69334,-3.05067 z m -15.808,-39.86664 V 38.4411 q 4.43733,-4.64533 11.09333,-4.64533 3.952,0 7.21066,1.52533 3.328,1.456 5.616,4.02133 2.35733,2.496 3.67467,5.96267 1.31733,3.39733 1.31733,7.27999 0,3.952 -1.38667,7.41867 -1.31733,3.46666 -3.744,6.03199 -2.42666,2.56533 -5.75466,4.09067 -3.25866,1.456 -7.072,1.456 -6.93333,0 -10.95466,-5.06133 v 3.95199 H 565.55793 V 12.92645 Z"
       style="font-weight:bold;font-size:69.3333px;font-family:Futura;-inkscape-font-specification:'Futura Bold';fill:#f1526c;fill-opacity:1;stroke:#ffffff;stroke-width:0.5;stroke-dasharray:none"
       id="path2711" /><path
       d="m 640.16044,47.52376 q -0.624,-2.63466 -2.56534,-4.22933 -1.94133,-1.59467 -4.71466,-1.59467 -2.912,0 -4.784,1.52534 -1.80266,1.52533 -2.288,4.29866 z m -14.69866,7.28 q 0,8.11199 7.62666,8.11199 4.09067,0 6.17066,-3.32799 h 12.13333 q -3.67466,12.20266 -18.37332,12.20266 -4.50667,0 -8.25067,-1.31734 -3.74399,-1.38666 -6.44799,-3.88266 -2.63467,-2.496 -4.09067,-5.96266 -1.456,-3.46667 -1.456,-7.76533 0,-4.43734 1.38667,-7.97333 1.38667,-3.60533 3.952,-6.10133 2.56533,-2.496 6.17066,-3.81333 3.67467,-1.38667 8.25066,-1.38667 4.50667,0 8.112,1.38667 3.60533,1.31733 6.10133,3.88266 2.496,2.56533 3.81333,6.30933 1.31733,3.67466 1.31733,8.32 v 1.31733 z"
       style="font-weight:bold;font-size:69.3333px;font-family:Futura;-inkscape-font-specification:'Futura Bold';fill:#f1526c;fill-opacity:1;stroke:#ffffff;stroke-width:0.5;stroke-dasharray:none"
       id="path2713" /><path
       d="M 671.56839,12.92645 V 70.47308 H 659.01906 V 12.92645 Z"
       style="font-weight:bold;font-size:69.3333px;font-family:Futura;-inkscape-font-specification:'Futura Bold';fill:#f1526c;fill-opacity:1;stroke:#ffffff;stroke-width:0.5;stroke-dasharray:none"
       id="path2715" /></g></g>
</g>
</svg>
